<svg width="23" height="19" viewBox="0 0 23 19" fill="none" xmlns="http://www.w3.org/2000/svg">
<path d="M0 16.7066C0 17.7756 0.858507 18.6428 1.91667 18.6428H21.0833C22.1415 18.6428 23 17.7756 23 16.7066V9.60712H0V16.7066ZM7.66667 13.9636C7.66667 13.6974 7.88229 13.4796 8.14583 13.4796H13.5764C13.8399 13.4796 14.0556 13.6974 14.0556 13.9636V15.5771C14.0556 15.8434 13.8399 16.0612 13.5764 16.0612H8.14583C7.88229 16.0612 7.66667 15.8434 7.66667 15.5771V13.9636ZM2.55556 13.9636C2.55556 13.6974 2.77118 13.4796 3.03472 13.4796H5.90972C6.17326 13.4796 6.38889 13.6974 6.38889 13.9636V15.5771C6.38889 15.8434 6.17326 16.0612 5.90972 16.0612H3.03472C2.77118 16.0612 2.55556 15.8434 2.55556 15.5771V13.9636ZM23 2.50763V4.44386H0V2.50763C0 1.43868 0.858507 0.571411 1.91667 0.571411H21.0833C22.1415 0.571411 23 1.43868 23 2.50763Z" fill="black"/>
</svg>
