<svg width="10" height="18" viewBox="0 0 10 18" fill="none" xmlns="http://www.w3.org/2000/svg">
<path d="M9.80323 5.81426C9.71484 5.82348 9.6566 5.83476 9.59836 5.83476C8.77328 5.83578 7.94819 5.83578 7.1088 5.83578C7.05516 5.56167 7.01225 5.3019 6.95298 5.04572C6.65973 3.77301 5.12298 3.19301 4.05267 3.9508C3.9837 3.99947 3.91779 4.05634 3.86109 4.11834C3.11008 4.93914 3.29349 6.40809 4.26111 6.94197C5.13882 7.42615 6.06199 7.82631 6.96167 8.27053C7.38111 8.47752 7.80463 8.68042 8.20364 8.92225C9.11506 9.47458 9.66989 10.2836 9.81804 11.3478C9.94372 12.2506 9.89366 13.1426 9.48699 13.9752C8.93727 15.0998 7.94513 15.6373 6.79359 15.9426C6.56369 16.0036 6.33021 16.0549 6.0952 16.0912C5.9542 16.1128 5.91281 16.1737 5.91639 16.3095C5.92405 16.6062 5.91894 16.9028 5.91894 17.2138C5.40397 17.2138 4.91505 17.2138 4.3965 17.2138C4.3965 16.9248 4.38679 16.6456 4.40007 16.3669C4.40825 16.1958 4.34439 16.1338 4.18192 16.0964C3.35786 15.9073 2.56343 15.6368 1.83899 15.1854C0.605194 14.4168 0.00592124 13.201 0.195972 11.69C0.628694 11.69 1.06755 11.69 1.5064 11.69C1.94781 11.69 2.38973 11.69 2.8531 11.69C2.88018 11.8801 2.90062 12.0554 2.93025 12.229C3.10242 13.2481 3.6884 13.8251 4.71223 13.928C5.07138 13.9639 5.44893 13.9496 5.80297 13.8814C6.65207 13.718 7.17624 12.9156 7.08684 11.9964C7.02246 11.3329 6.71542 10.8272 6.11615 10.5321C5.25377 10.1073 4.37351 9.71898 3.51675 9.28398C2.96499 9.00372 2.39177 8.73012 1.91511 8.34533C0.805461 7.44972 0.418719 6.22979 0.644532 4.8418C0.882095 3.38361 1.72506 2.3845 3.11059 1.86753C3.51624 1.71638 3.93465 1.59751 4.35154 1.47967C4.51247 1.43407 4.56611 1.35722 4.55947 1.19224C4.5467 0.885842 4.55589 0.578425 4.55589 0.25C5.05656 0.25 5.54497 0.25 6.07323 0.25C6.07323 0.588159 6.08498 0.935029 6.06863 1.28036C6.05995 1.46686 6.12994 1.52527 6.30262 1.56165C7.34126 1.7794 8.28487 2.18058 8.96997 3.04033C9.61267 3.84525 9.85176 4.77314 9.80323 5.81426Z" fill="black"/>
</svg>
