<svg width="12" height="12" viewBox="0 0 12 12" fill="none" xmlns="http://www.w3.org/2000/svg">
<path d="M7.59822 4.10714H10.7196C11.1488 4.10714 11.5 4.47679 11.5 4.92857V6.57143C11.5 7.02321 11.1488 7.39286 10.7196 7.39286H7.59822V10.6786C7.59822 11.1304 7.24706 11.5 6.81786 11.5H5.25715C4.82795 11.5 4.4768 11.1304 4.4768 10.6786V7.39286H1.35537C0.926173 7.39286 0.575012 7.02321 0.575012 6.57143V4.92857C0.575012 4.47679 0.926173 4.10714 1.35537 4.10714H4.4768V0.821429C4.4768 0.369643 4.82795 0 5.25715 0H6.81786C7.24706 0 7.59822 0.369643 7.59822 0.821429V4.10714Z" fill="black"/>
</svg>
