<svg width="32" height="28" viewBox="0 0 32 28" fill="none" xmlns="http://www.w3.org/2000/svg">
<path d="M2.7695 13.6285C3.192 14.0317 3.3468 14.4995 3.19302 15.0411C2.97436 15.8096 2.16205 16.1805 1.30989 15.9167C0.584939 15.6918 0.0577018 15.0159 0.00712381 14.2464C-0.125196 12.2405 1.58066 10.5522 3.62268 10.6501C4.92289 10.7126 5.97021 11.3239 6.94805 12.116C7.62907 12.6673 8.29016 13.2539 9.02226 13.7289C10.4277 14.6409 11.9931 15.1225 13.6703 15.1691C15.741 15.2265 17.5439 14.4821 19.1741 13.2468C20.7047 12.0863 21.7623 10.5507 22.6425 8.87528C23.4314 7.37354 24.2013 5.86207 24.9931 4.36239C25.4861 3.42937 26.0589 2.54555 26.9166 1.90356C27.8812 1.18215 28.9489 0.784044 30.1679 1.09607C31.0415 1.31946 31.6137 1.90612 31.9213 2.74127C32.1578 3.38326 31.8416 4.08673 31.2239 4.36853C30.6042 4.65136 29.8783 4.43104 29.5441 3.82799C29.4317 3.62561 29.3163 3.62612 29.1339 3.68094C28.6904 3.81467 28.3395 4.08315 28.0779 4.44949C27.7765 4.87116 27.4842 5.30513 27.2405 5.76216C26.3414 7.4463 25.481 9.15144 24.5722 10.8299C23.9034 12.0642 23.0993 13.2109 22.0852 14.1895C21.6877 14.5728 21.2601 14.9324 20.8105 15.2521C19.3744 16.2723 18.817 17.7146 18.8875 19.4033C18.9452 20.7826 19.1481 22.1547 19.5241 23.4914C19.5793 23.6872 19.6697 23.8726 19.7489 24.0612C19.8219 24.2354 19.9282 24.2979 20.129 24.2236C20.8463 23.9587 21.5722 23.7164 22.2916 23.4551C22.9337 23.2214 23.577 23.5365 23.7389 24.1775C23.8717 24.7022 23.5999 25.213 23.065 25.4302C21.6274 26.0143 20.1504 26.4698 18.6305 26.7839C16.4649 27.2312 14.2798 27.3654 12.0784 27.1543C9.3763 26.8946 6.80603 26.1486 4.35836 24.9799C3.64516 24.6391 2.9478 24.2631 2.25503 23.8824C1.68233 23.5673 1.50556 22.9248 1.81567 22.3945C2.1176 21.878 2.7414 21.7371 3.30848 22.0445C3.9144 22.373 4.52849 22.6855 5.13491 23.0134C5.2846 23.0944 5.39342 23.078 5.47874 22.9386C5.61617 22.7137 5.77505 22.4964 5.87519 22.2556C6.41979 20.9378 6.86222 19.5826 7.12891 18.1823C7.38537 16.8384 7.05278 15.6574 5.95335 14.7633C5.49815 14.3929 5.05777 13.9994 4.57395 13.6705C4.30829 13.4901 3.97417 13.3923 3.65742 13.3113C3.32177 13.2232 3.02085 13.3421 2.7695 13.6285ZM13.935 25.1146C14.4704 25.1146 15.0073 25.1392 15.5412 25.1095C16.8072 25.0388 17.4703 24.3563 17.3625 23.0898C17.2854 22.1803 17.0504 21.2806 16.8424 20.3865C16.73 19.9034 16.3949 19.536 15.9606 19.306C15.6188 19.1246 15.2515 18.9632 14.8765 18.8781C13.6381 18.5984 12.3885 18.6578 11.1537 18.9017C9.88004 19.1533 8.99212 19.9198 8.53283 21.13C8.3295 21.6654 8.2125 22.2418 8.12361 22.81C7.97698 23.744 8.35197 24.2907 9.24756 24.5577C10.7772 25.0147 12.3466 25.1653 13.935 25.1146Z" fill="black"/>
</svg>
