<svg width="16" height="16" viewBox="0 0 16 16" fill="none" xmlns="http://www.w3.org/2000/svg">
<path d="M9.06 13.06C9.9 13.06 10.6333 12.8867 11.26 12.54C11.9 12.18 12.4 11.6533 12.76 10.96H15.5C14.98 12.2933 14.1467 13.32 13 14.04C11.8533 14.76 10.54 15.12 9.06 15.12C7.5 15.12 6.11333 14.7 4.9 13.86C3.68667 13.0067 2.84 11.8733 2.36 10.46H0.52V8.9H2C1.97333 8.52667 1.96 8.23333 1.96 8.02C1.96 7.80667 1.97333 7.51333 2 7.14H0.52V5.58H2.36C2.84 4.16667 3.68667 3.04 4.9 2.2C6.11333 1.34667 7.5 0.919999 9.06 0.919999C10.5267 0.919999 11.8333 1.28667 12.98 2.02C14.14 2.74 14.98 3.76667 15.5 5.1H12.76C12.4 4.40667 11.9 3.88667 11.26 3.54C10.6333 3.18 9.9 3 9.06 3C8.08667 3 7.22667 3.22667 6.48 3.68C5.74667 4.13333 5.18667 4.76667 4.8 5.58H9.06V7.14H4.36C4.32 7.42 4.3 7.71333 4.3 8.02C4.3 8.32667 4.32 8.62 4.36 8.9H9.06V10.46H4.8C5.18667 11.2867 5.74667 11.9267 6.48 12.38C7.22667 12.8333 8.08667 13.06 9.06 13.06Z" fill="white"/>
</svg>
