<svg width="21" height="14" viewBox="0 0 21 14" fill="none" xmlns="http://www.w3.org/2000/svg">
<path d="M20.5693 6.86136H17.5845L18.0104 5.13809H20.5693C20.8076 5.13809 21 4.94498 21 4.70721C21 4.46945 20.8069 4.27657 20.5693 4.27657H18.2234L18.7429 2.17545C18.8751 1.63374 18.9422 1.23981 18.9422 1.00545C18.9422 0.71465 18.8445 0.48074 18.6436 0.289668C18.4387 0.0951959 18.1953 0.000453497 17.8995 0.000453497C17.6092 0.000453497 17.3918 0.0698103 17.2526 0.206258C17.0903 0.366278 16.9795 0.540804 16.914 0.740035C16.8385 0.968732 16.7576 1.29217 16.6722 1.70038L16.0944 4.27657H12.8545L12.3013 2.23371C12.1347 1.62286 12.0007 1.18066 11.9037 0.919547C11.8192 0.692437 11.6619 0.476433 11.4356 0.277428C11.2264 0.0936096 10.9164 0.000226533 10.5145 0.000226533C10.1147 0.000226533 9.80053 0.0908896 9.58067 0.269722C9.34766 0.459434 9.17789 0.686091 9.0759 0.94312C8.96144 1.23301 8.82839 1.66638 8.68106 2.23144L8.13232 4.27634H4.90627L4.32942 1.70401C4.20272 1.10722 4.0563 0.652546 3.89333 0.349505C3.84664 0.263375 3.70475 0 3.10093 0C2.79992 0 2.55559 0.0954225 2.35454 0.291481C2.15508 0.485726 2.05807 0.719636 2.05807 1.005C2.05807 1.26429 2.12493 1.65686 2.25685 2.17273L2.77681 4.27589H0.430653C0.192661 4.27589 0 4.46877 0 4.70653C0 4.9443 0.192887 5.13741 0.430653 5.13741H2.98987L3.41576 6.86046H0.430653C0.192661 6.86046 0 7.05379 0 7.2911C0 7.52932 0.192887 7.72175 0.430653 7.72175H3.62882L4.55586 11.4718C4.62431 11.7458 4.70228 12.0436 4.78977 12.3655C4.87091 12.6642 4.97586 12.9247 5.10142 13.1384C5.21702 13.3351 5.36254 13.4829 5.54658 13.5888C5.72746 13.6933 5.96953 13.7463 6.266 13.7463C6.6316 13.7463 6.9113 13.6602 7.12119 13.4838C7.34241 13.2977 7.49858 13.0872 7.58516 12.8585C7.68557 12.5937 7.82406 12.1466 7.99677 11.5294L9.03646 7.7213H11.9762L13.0037 11.5319C13.1825 12.1663 13.3226 12.62 13.4196 12.8777C13.503 13.0996 13.6571 13.3045 13.8772 13.487C14.0848 13.659 14.3732 13.7465 14.7342 13.7465C15.1171 13.7465 15.411 13.6577 15.6078 13.4841C15.8204 13.2955 15.9729 13.0738 16.0611 12.8263C16.161 12.5437 16.2905 12.0874 16.4444 11.4711L17.3714 7.72153H20.5693C20.8076 7.72153 21 7.52864 21 7.29088C21.0002 7.05447 20.8076 6.86136 20.5693 6.86136ZM15.9008 5.13831L15.5144 6.86136H13.5547L13.0878 5.13831H15.9008ZM10.5159 2.30578L11.0472 4.27657H9.97755L10.5159 2.30578ZM5.09938 5.13831H7.90044L7.43806 6.86136H5.48584L5.09938 5.13831ZM6.3748 10.8233L5.67918 7.72266H7.20686L6.3748 10.8233ZM9.27196 6.86136L9.74228 5.13809H11.2793L11.7441 6.86136H9.27196ZM14.6268 10.8181L13.7881 7.72289H15.3213L14.6268 10.8181Z" fill="white"/>
</svg>
